<?xml version="1.0" encoding="utf-8"?>
<!-- Generator: Adobe Illustrator 16.0.0, SVG Export Plug-In . SVG Version: 6.00 Build 0)  -->
<!DOCTYPE svg PUBLIC "-//W3C//DTD SVG 1.1//EN" "http://www.w3.org/Graphics/SVG/1.1/DTD/svg11.dtd">
<svg version="1.1" id="Layer_1" xmlns="http://www.w3.org/2000/svg" xmlns:xlink="http://www.w3.org/1999/xlink" x="0px" y="0px"
	 width="200px" height="200px" viewBox="0 0 200 200" enable-background="new 0 0 200 200" xml:space="preserve">
<g>
	<path fill="#231F20" d="M130.861,167.578H69.14c-1.436,0-2.817-0.553-3.889-1.555c-1.072-1.004-1.715-2.346-1.811-3.777
		l-0.165-2.469c-0.121-1.815-0.103-4.658,0.042-6.473l4.842-60.963l-36.855,56.34c-1.156,1.768-3.342,2.909-5.567,2.909
		c-0.625,0-1.232-0.091-1.803-0.27l-9.491-2.974c-1.454-0.457-2.611-1.488-3.174-2.833c-0.563-1.345-0.487-2.892,0.208-4.247
		l48.97-95.543c1.022-1.994,3.34-4.18,5.391-5.084l17.519-7.719c0.753-0.332,1.575-0.5,2.44-0.5c2.018,0,3.988,0.941,5.142,2.457
		c0.035,0.045,3.952,5.045,9.062,5.045c5.08,0,9.024-4.994,9.062-5.045c1.154-1.516,3.124-2.457,5.143-2.457
		c0.865,0,1.687,0.168,2.44,0.5l17.519,7.719c2.051,0.904,4.367,3.09,5.39,5.084l48.971,95.543c0.694,1.355,0.771,2.902,0.206,4.247
		c-0.562,1.345-1.719,2.376-3.172,2.833l-9.492,2.974c-0.57,0.179-1.178,0.27-1.803,0.27c-2.227,0-4.411-1.142-5.567-2.909
		l-36.854-56.34l4.842,60.963c0.144,1.814,0.162,4.657,0.041,6.473l-0.164,2.469c-0.096,1.432-0.738,2.773-1.811,3.777
		C133.678,167.025,132.297,167.578,130.861,167.578z M70.682,82.234c0.77,0,1.483,0.313,2.01,0.884
		c0.998,1.08,0.874,2.647,0.833,3.163l-5.354,67.41c-0.124,1.561-0.141,4.199-0.036,5.762l0.164,2.469
		c0.027,0.405,0.437,0.788,0.842,0.788h61.722c0.404,0,0.814-0.383,0.841-0.788l0.164-2.469c0.104-1.562,0.089-4.201-0.036-5.762
		l-5.354-67.41c-0.041-0.516-0.166-2.083,0.832-3.163c0.526-0.57,1.24-0.884,2.01-0.884c1.729,0,2.729,1.529,3.057,2.031
		l40.396,61.752c0.259,0.395,0.915,0.705,1.493,0.705c0.129,0,0.25-0.016,0.347-0.047l9.492-2.975
		c0.085-0.027,0.124-0.056,0.137-0.068c-0.001-0.018-0.007-0.066-0.047-0.146l-48.972-95.543c-0.516-1.007-1.983-2.392-3.02-2.849
		l-17.519-7.718c-0.13-0.058-0.295-0.087-0.478-0.087c-0.498,0-1.031,0.226-1.269,0.537c-0.217,0.284-5.388,6.965-12.937,6.965
		c-7.548,0-12.72-6.681-12.936-6.965c-0.237-0.312-0.771-0.537-1.269-0.537c-0.183,0-0.349,0.029-0.478,0.087L67.8,45.096
		c-1.036,0.457-2.504,1.842-3.021,2.849l-48.971,95.543c-0.04,0.079-0.047,0.128-0.047,0.146c0.013,0.013,0.051,0.041,0.137,0.068
		l9.491,2.975c0.098,0.031,0.218,0.047,0.347,0.047c0.579,0,1.234-0.311,1.493-0.705l40.396-61.752
		C67.954,83.764,68.953,82.234,70.682,82.234z"/>
	<path fill="#EE4623" d="M101.195,149.812c-0.892,0-2.215-0.102-3.449-0.585L87.25,145.12c-2.352-0.92-4.461-3.488-4.906-5.974
		l-3.381-18.861c-0.27-1.502,0.113-3.005,1.049-4.123c0.935-1.117,2.347-1.76,3.874-1.76h32.623c1.514,0,2.927,0.635,3.876,1.74
		c0.949,1.104,1.363,2.597,1.135,4.094l-2.834,18.6c-0.376,2.469-2.371,5.115-4.641,6.157l-8.754,4.018
		C104.166,149.527,102.711,149.812,101.195,149.812z M83.749,119.291c-0.003,0.021-0.007,0.064,0.007,0.137l3.381,18.859
		c0.148,0.832,1.102,1.992,1.888,2.299l10.496,4.107c0.399,0.157,1.025,0.25,1.675,0.25c0.949,0,1.689-0.185,2.064-0.357
		l8.754-4.018c0.791-0.363,1.729-1.607,1.859-2.466l2.834-18.601c0.016-0.105,0-0.17-0.015-0.188
		c-0.015-0.017-0.076-0.043-0.184-0.043H83.886C83.812,119.271,83.771,119.283,83.749,119.291z"/>
	<path fill="#EE4623" d="M117.858,123.551H82.39c-1.345,0-2.435-1.09-2.435-2.434c0-1.345,1.09-2.436,2.435-2.436h35.469
		c1.345,0,2.435,1.091,2.435,2.436C120.293,122.461,119.203,123.551,117.858,123.551z"/>
</g>
</svg>
