<?xml version="1.0" encoding="utf-8"?>
<!-- Generator: Adobe Illustrator 16.0.0, SVG Export Plug-In . SVG Version: 6.00 Build 0)  -->
<!DOCTYPE svg PUBLIC "-//W3C//DTD SVG 1.1//EN" "http://www.w3.org/Graphics/SVG/1.1/DTD/svg11.dtd">
<svg version="1.1" id="Layer_1" xmlns="http://www.w3.org/2000/svg" xmlns:xlink="http://www.w3.org/1999/xlink" x="0px" y="0px"
	 width="200px" height="200px" viewBox="0 0 200 200" enable-background="new 0 0 200 200" xml:space="preserve">
<g>
	<path fill="#231F20" d="M130.856,167.578H69.136c-1.436,0-2.816-0.553-3.889-1.556s-1.715-2.345-1.811-3.777l-0.165-2.468
		c-0.12-1.816-0.103-4.659,0.041-6.472l4.843-60.964L31.3,148.682c-1.155,1.767-3.341,2.909-5.567,2.909
		c-0.626,0-1.231-0.09-1.803-0.27l-9.492-2.976c-1.453-0.455-2.609-1.488-3.173-2.831c-0.562-1.344-0.487-2.893,0.207-4.248
		l48.971-95.543c1.022-1.994,3.34-4.18,5.391-5.083l17.519-7.718c0.753-0.332,1.575-0.5,2.44-0.5c2.018,0,3.988,0.941,5.142,2.457
		c0.034,0.044,3.952,5.045,9.062,5.045s9.028-5,9.067-5.051c1.148-1.51,3.119-2.451,5.136-2.451c0.867,0,1.688,0.168,2.441,0.5
		l17.52,7.718c2.05,0.903,4.367,3.089,5.39,5.083l48.971,95.543c0.694,1.355,0.771,2.904,0.207,4.248
		c-0.563,1.343-1.72,2.376-3.173,2.831l-9.492,2.976c-0.57,0.179-1.178,0.27-1.803,0.27c-2.227,0-4.411-1.142-5.567-2.909
		l-36.855-56.34l4.842,60.964c0.145,1.814,0.163,4.656,0.042,6.472l-0.164,2.468c-0.096,1.432-0.739,2.774-1.812,3.777
		S132.292,167.578,130.856,167.578z M70.678,82.234c0.771,0,1.484,0.313,2.011,0.883c0.997,1.081,0.873,2.649,0.832,3.165
		l-5.354,67.409c-0.124,1.561-0.141,4.2-0.037,5.762l0.165,2.468c0.027,0.405,0.436,0.788,0.842,0.788h61.721
		c0.405,0,0.815-0.383,0.842-0.788l0.165-2.468c0.104-1.562,0.087-4.201-0.037-5.762l-5.354-67.41
		c-0.041-0.515-0.165-2.083,0.833-3.164c0.525-0.569,1.24-0.883,2.011-0.883c1.727,0,2.728,1.528,3.056,2.031l40.396,61.75
		c0.259,0.396,0.915,0.707,1.493,0.707c0.129,0,0.249-0.017,0.347-0.047l9.492-2.975c0.085-0.027,0.124-0.057,0.137-0.068
		c-0.001-0.018-0.007-0.065-0.048-0.145l-48.971-95.543c-0.516-1.008-1.984-2.392-3.021-2.849l-17.518-7.718
		c-0.13-0.057-0.295-0.087-0.479-0.087c-0.496,0-1.029,0.226-1.267,0.538c-0.217,0.284-5.389,6.964-12.937,6.964
		s-12.72-6.68-12.936-6.964c-0.237-0.312-0.771-0.538-1.269-0.538c-0.183,0-0.348,0.03-0.478,0.087l-17.519,7.718
		c-1.036,0.457-2.504,1.84-3.021,2.849l-48.97,95.543c-0.041,0.08-0.046,0.127-0.047,0.145c0.013,0.012,0.051,0.041,0.137,0.068
		l9.491,2.975c0.098,0.031,0.218,0.047,0.347,0.047c0.579,0,1.234-0.311,1.493-0.707l40.396-61.75
		C67.949,83.763,68.95,82.234,70.678,82.234z"/>
	<g>
		<defs>
			<path id="SVGID_1_" d="M61.546,54.238l9.342-18.071l-11.272,7.41L9.877,137.17l1.081,11.829c0,0,9.954,2.236,10.242,2.379
				c0.289,0.145,11.829,0,11.829,0l25.244-38.659l7.284-14.786l-0.146-1.42l9.266-13.936L61.546,54.238z"/>
		</defs>
		<clipPath id="SVGID_2_">
			<use xlink:href="#SVGID_1_"  overflow="visible"/>
		</clipPath>
		<path clip-path="url(#SVGID_2_)" fill="#EE4623" d="M25.756,151.595c-0.617,0-1.233-0.088-1.826-0.274l-9.492-2.976
			c-1.453-0.455-2.609-1.488-3.173-2.831c-0.562-1.344-0.487-2.893,0.207-4.248l48.971-95.543c1.022-1.994,3.34-4.18,5.391-5.083
			l11.886-5.236c1.23-0.542,2.668,0.016,3.209,1.246c0.542,1.23-0.016,2.667-1.246,3.209l-11.886,5.237
			c-1.036,0.457-2.504,1.84-3.021,2.849l-48.97,95.543c-0.041,0.08-0.046,0.127-0.047,0.145c0.013,0.012,0.051,0.041,0.137,0.068
			l9.491,2.975c0.568,0.178,1.514-0.161,1.84-0.66l40.396-61.75c1.503-2.298,3.112-2.167,3.938-1.886
			c0.826,0.282,2.179,1.165,1.962,3.902l-1.271,15.987c-0.105,1.34-1.279,2.34-2.619,2.234c-1.34-0.107-2.34-1.279-2.233-2.619
			l0.784-9.538L31.3,148.682C30.108,150.504,27.925,151.595,25.756,151.595z"/>
	</g>
	<g>
		<defs>
			<path id="SVGID_3_" d="M138.453,54.238l-9.341-18.071l11.272,7.41l49.738,93.594l-1.081,11.829c0,0-9.954,2.236-10.243,2.379
				c-0.288,0.145-11.828,0-11.828,0l-25.245-38.659l-7.284-14.786l0.147-1.42l-9.267-13.936L138.453,54.238z"/>
		</defs>
		<clipPath id="SVGID_4_">
			<use xlink:href="#SVGID_3_"  overflow="visible"/>
		</clipPath>
		<path clip-path="url(#SVGID_4_)" fill="#EE4623" d="M174.243,151.595c0.618,0,1.235-0.088,1.826-0.274l9.492-2.976
			c1.453-0.455,2.61-1.488,3.173-2.831c0.563-1.344,0.487-2.893-0.207-4.248l-48.97-95.543c-1.022-1.994-3.34-4.18-5.391-5.083
			l-11.887-5.236c-1.229-0.542-2.666,0.016-3.209,1.246c-0.542,1.23,0.017,2.667,1.246,3.209l11.886,5.237
			c1.037,0.457,2.505,1.84,3.021,2.849l48.971,95.543c0.041,0.08,0.047,0.127,0.048,0.145c-0.013,0.012-0.051,0.041-0.137,0.068
			l-9.491,2.975c-0.568,0.178-1.515-0.161-1.841-0.66l-40.395-61.75c-1.503-2.298-3.113-2.167-3.938-1.886
			c-0.825,0.282-2.18,1.165-1.962,3.902l1.27,15.987c0.107,1.34,1.28,2.34,2.62,2.234c1.341-0.107,2.341-1.279,2.234-2.619
			l-0.785-9.538l36.883,56.335C169.892,150.504,172.075,151.595,174.243,151.595z"/>
	</g>
	
		<rect x="114.542" y="52.247" transform="matrix(0.4564 0.8898 -0.8898 0.4564 121.8339 -92.5447)" fill="#FFFFFF" width="44.228" height="2.381"/>
	<path fill="#FFFFFF" d="M140.999,109.995c-0.394,0-0.778-0.195-1.005-0.552l-15.509-24.393c-0.352-0.555-0.188-1.29,0.366-1.643
		s1.29-0.189,1.643,0.366l15.508,24.392c0.354,0.555,0.189,1.291-0.365,1.643C141.438,109.935,141.218,109.995,140.999,109.995z"/>
	
		<rect x="62.105" y="31.322" transform="matrix(0.8898 0.4564 -0.4564 0.8898 31.3634 -22.997)" fill="#FFFFFF" width="2.381" height="44.229"/>
	<path fill="#FFFFFF" d="M58.951,109.995c-0.219,0-0.438-0.06-0.638-0.186c-0.555-0.352-0.718-1.088-0.365-1.643l15.508-24.392
		c0.354-0.556,1.089-0.719,1.643-0.366c0.555,0.353,0.719,1.088,0.366,1.643l-15.509,24.393
		C59.73,109.8,59.345,109.995,58.951,109.995z"/>
</g>
</svg>
