<?xml version="1.0" encoding="utf-8"?>
<!-- Generator: Adobe Illustrator 16.0.0, SVG Export Plug-In . SVG Version: 6.00 Build 0)  -->
<!DOCTYPE svg PUBLIC "-//W3C//DTD SVG 1.1//EN" "http://www.w3.org/Graphics/SVG/1.1/DTD/svg11.dtd">
<svg version="1.1" id="Layer_1" xmlns="http://www.w3.org/2000/svg" xmlns:xlink="http://www.w3.org/1999/xlink" x="0px" y="0px"
	 width="200px" height="200px" viewBox="0 0 200 200" enable-background="new 0 0 200 200" xml:space="preserve">
<g>
	<path fill="#EE4523" d="M136.395,150h-4.884l0.32,3.984c0.125,1.561,0.141,4.179,0.037,5.741l-0.165,2.478
		c-0.028,0.405-0.436,0.798-0.842,0.798H69.14c-0.406,0-0.815-0.403-0.842-0.809l-0.165-2.478c-0.104-1.562-0.087-4.164,0.037-5.725
		L68.49,150h-4.884l-0.289,3.599c-0.144,1.813-0.163,4.634-0.042,6.45l0.165,2.458c0.096,1.432,0.739,2.854,1.812,3.857
		c1.072,1.003,2.453,1.636,3.889,1.636h61.72c1.436,0,2.817-0.639,3.889-1.642c1.072-1.003,1.715-2.388,1.811-3.82l0.165-2.49
		c0.121-1.816,0.103-4.626-0.041-6.44L136.395,150z"/>
	<path fill="#231F20" d="M188.524,141.517l-48.971-95.543c-1.022-1.994-3.339-4.18-5.39-5.083l-17.519-7.718
		c-0.753-0.332-1.575-0.5-2.441-0.5c-2.018,0-3.988,0.941-5.137,2.451c-0.039,0.05-3.957,5.051-9.068,5.051
		c-5.11,0-9.027-5-9.062-5.045c-1.154-1.516-3.124-2.457-5.142-2.457c-0.867,0-1.687,0.168-2.44,0.5L65.837,40.89
		c-2.051,0.903-4.368,3.089-5.391,5.083l-48.97,95.543c-0.694,1.355-0.771,2.904-0.208,4.248c0.563,1.343,1.719,2.376,3.173,2.831
		l9.492,2.976c0.57,0.179,1.178,0.27,1.803,0.27c2.226,0,4.411-1.142,5.567-2.909l36.855-56.106L63.795,148h4.884l4.846-61.235
		c0.041-0.515,0.165-2.2-0.833-3.281c-0.526-0.569-1.24-0.941-2.011-0.941c-1.727,0-2.728,1.499-3.057,2.002L27.23,146.281
		c-0.259,0.396-0.915,0.699-1.493,0.699c-0.13,0-0.249-0.021-0.347-0.051l-9.492-2.976c-0.085-0.027-0.124-0.058-0.137-0.069
		c0-0.018,0.007-0.066,0.048-0.146l48.97-95.543c0.517-1.008,1.985-2.392,3.021-2.849l17.518-7.718
		c0.129-0.057,0.295-0.087,0.479-0.087c0.497,0,1.03,0.226,1.268,0.538c0.216,0.284,5.389,6.964,12.936,6.964
		c7.548,0,12.721-6.68,12.937-6.964c0.237-0.312,0.77-0.538,1.268-0.538c0.183,0,0.349,0.03,0.478,0.087l17.519,7.718
		c1.036,0.457,2.505,1.84,3.021,2.849l48.971,95.543c0.041,0.08,0.046,0.127,0.046,0.145c-0.013,0.012-0.05,0.041-0.136,0.068
		l-9.492,2.975c-0.098,0.031-0.218,0.047-0.347,0.047c-0.579,0-1.234-0.311-1.493-0.707l-40.395-61.75
		c-0.329-0.503-1.329-2.031-3.057-2.031c-0.77,0-1.484,0.313-2.011,0.883c-0.998,1.081-0.873,2.882-0.832,3.397L131.321,148h4.884
		l-4.364-55.175l36.855,56.224c1.156,1.767,3.341,2.851,5.567,2.851c0.625,0,1.232-0.12,1.803-0.299l9.491-2.99
		c1.454-0.455,2.61-1.495,3.173-2.838C189.294,144.428,189.219,142.872,188.524,141.517z"/>
</g>
</svg>
