<?xml version="1.0" encoding="utf-8"?>
<!-- Generator: Adobe Illustrator 16.0.0, SVG Export Plug-In . SVG Version: 6.00 Build 0)  -->
<!DOCTYPE svg PUBLIC "-//W3C//DTD SVG 1.1//EN" "http://www.w3.org/Graphics/SVG/1.1/DTD/svg11.dtd">
<svg version="1.1" id="Layer_1" xmlns="http://www.w3.org/2000/svg" xmlns:xlink="http://www.w3.org/1999/xlink" x="0px" y="0px"
	 width="200px" height="200px" viewBox="0 0 200 200" enable-background="new 0 0 200 200" xml:space="preserve">
<g>
	<path fill="#231F20" d="M137.273,167.734h-61.72c-1.436,0-2.817-0.552-3.889-1.555c-1.073-1.003-1.716-2.344-1.812-3.777
		l-0.164-2.469c-0.121-1.814-0.104-4.658,0.041-6.471l4.842-60.965l-36.854,56.341c-1.155,1.767-3.342,2.909-5.567,2.909
		c-0.626,0-1.232-0.091-1.803-0.27l-9.492-2.975c-1.453-0.457-2.609-1.488-3.174-2.832c-0.562-1.344-0.486-2.893,0.208-4.248
		L66.86,45.88c1.022-1.994,3.339-4.18,5.391-5.083l17.519-7.72c0.753-0.331,1.574-0.5,2.44-0.5c2.019,0,3.987,0.942,5.142,2.459
		c0.033,0.043,3.951,5.043,9.062,5.043s9.027-5,9.066-5.05c1.15-1.51,3.119-2.452,5.137-2.452c0.867,0,1.688,0.169,2.441,0.5
		l17.518,7.72c2.051,0.903,4.369,3.089,5.391,5.083l48.971,95.543c0.695,1.355,0.77,2.904,0.207,4.248s-1.719,2.375-3.173,2.832
		l-9.491,2.975c-0.571,0.179-1.178,0.27-1.803,0.27c-2.227,0-4.412-1.143-5.568-2.909l-36.854-56.341l4.843,60.965
		c0.145,1.812,0.161,4.656,0.041,6.471l-0.165,2.469c-0.095,1.434-0.739,2.774-1.812,3.777
		C140.091,167.182,138.709,167.734,137.273,167.734z M77.095,82.39c0.771,0,1.485,0.314,2.011,0.885
		c0.998,1.08,0.874,2.648,0.832,3.164l-5.354,67.408c-0.125,1.561-0.141,4.199-0.037,5.764l0.164,2.467
		c0.027,0.406,0.438,0.788,0.843,0.788h61.72c0.406,0,0.815-0.382,0.842-0.788l0.166-2.467c0.104-1.563,0.087-4.203-0.037-5.764
		l-5.354-67.409c-0.041-0.515-0.165-2.083,0.832-3.163c0.526-0.57,1.24-0.885,2.011-0.885c1.729,0,2.729,1.529,3.057,2.032
		l40.395,61.751c0.26,0.396,0.915,0.706,1.494,0.706c0.129,0,0.248-0.017,0.348-0.048l9.49-2.975
		c0.086-0.026,0.123-0.056,0.137-0.068c0-0.018-0.006-0.064-0.047-0.145l-48.971-95.543c-0.518-1.008-1.984-2.393-3.021-2.848
		l-17.519-7.72c-0.129-0.056-0.295-0.087-0.479-0.087c-0.497,0-1.029,0.227-1.268,0.537c-0.216,0.285-5.388,6.965-12.936,6.965
		c-7.549,0-12.721-6.68-12.936-6.965c-0.238-0.311-0.771-0.537-1.269-0.537c-0.185,0-0.349,0.031-0.479,0.087l-17.519,7.72
		c-1.035,0.455-2.504,1.84-3.02,2.848l-48.971,95.543c-0.041,0.08-0.047,0.127-0.048,0.145c0.013,0.013,0.052,0.042,0.137,0.068
		l9.491,2.975c0.098,0.031,0.219,0.048,0.348,0.048c0.578,0,1.234-0.31,1.493-0.706l40.395-61.751
		C74.367,83.919,75.367,82.39,77.095,82.39z"/>
	<g>
		<defs>
			<path id="SVGID_5_" d="M103.98,167.735h4.867l0.094-4.901l0.941-122.742l-0.361-0.603c0,0-2.561,1.123-5.541,0.224
				c-2.982-0.898-0.535,0.508-0.535,0.508L103.98,167.735z"/>
		</defs>
		<clipPath id="SVGID_2_">
			<use xlink:href="#SVGID_5_"  overflow="visible"/>
		</clipPath>
		<g clip-path="url(#SVGID_2_)">
			<line fill="#EE4523" x1="106.414" y1="38.583" x2="106.414" y2="168.265"/>
			<path fill="#EE4627" d="M106.414,170.699c-1.345,0-2.434-1.09-2.434-2.434V38.583c0-1.345,1.089-2.435,2.434-2.435
				c1.344,0,2.434,1.09,2.434,2.435v129.683C108.848,169.609,107.758,170.699,106.414,170.699z"/>
		</g>
	</g>
	<path fill="#FFFFFF" d="M102.789,186.539c-0.657,0-1.189-0.532-1.189-1.189V24.914c0-0.658,0.532-1.19,1.189-1.19
		c0.658,0,1.191,0.532,1.191,1.19v160.436C103.98,186.006,103.447,186.539,102.789,186.539z"/>
	<path fill="#FFFFFF" d="M110.059,186.539c-0.658,0-1.189-0.532-1.189-1.189V24.914c0-0.658,0.531-1.19,1.189-1.19
		c0.657,0,1.189,0.532,1.189,1.19v160.436C111.248,186.006,110.716,186.539,110.059,186.539z"/>
</g>
</svg>
