<?xml version="1.0" encoding="utf-8"?>
<!-- Generator: Adobe Illustrator 16.0.0, SVG Export Plug-In . SVG Version: 6.00 Build 0)  -->
<!DOCTYPE svg PUBLIC "-//W3C//DTD SVG 1.1//EN" "http://www.w3.org/Graphics/SVG/1.1/DTD/svg11.dtd">
<svg version="1.1" id="Layer_1" xmlns="http://www.w3.org/2000/svg" xmlns:xlink="http://www.w3.org/1999/xlink" x="0px" y="0px"
	 width="200px" height="200px" viewBox="0 0 200 200" enable-background="new 0 0 200 200" xml:space="preserve">
<g>
	<rect x="69.515" y="57.529" fill="#EE4523" width="9.923" height="27.702"/>
	<rect x="79.438" y="85.231" fill="#EE4523" width="9.921" height="27.703"/>
	<g>
		<path fill="#231F20" d="M79.438,142.465c0,0,9.271,0.591,9.271-9.78s-9.271-19.75-9.271-19.75s-9.272,9.379-9.272,19.75
			S79.438,142.465,79.438,142.465z"/>
		<circle fill="#FFFFFF" cx="79.313" cy="132.638" r="4.934"/>
	</g>
	<rect x="120.562" y="57.529" fill="#EE4523" width="9.923" height="27.702"/>
	<rect x="110.641" y="85.231" fill="#EE4523" width="9.922" height="27.703"/>
	<g>
		<path fill="#231F20" d="M120.562,142.465c0,0,9.271,0.591,9.271-9.78s-9.271-19.75-9.271-19.75s-9.271,9.379-9.271,19.75
			S120.562,142.465,120.562,142.465z"/>
		<circle fill="#FFFFFF" cx="120.44" cy="132.638" r="4.934"/>
	</g>
</g>
</svg>
