<?xml version="1.0" encoding="utf-8"?>
<!-- Generator: Adobe Illustrator 16.0.0, SVG Export Plug-In . SVG Version: 6.00 Build 0)  -->
<!DOCTYPE svg PUBLIC "-//W3C//DTD SVG 1.1//EN" "http://www.w3.org/Graphics/SVG/1.1/DTD/svg11.dtd">
<svg version="1.1" id="Layer_1" xmlns="http://www.w3.org/2000/svg" xmlns:xlink="http://www.w3.org/1999/xlink" x="0px" y="0px"
	 width="200px" height="200px" viewBox="0 0 200 200" enable-background="new 0 0 200 200" xml:space="preserve">
<g>
	<path fill="#231F20" d="M130.86,167.505H69.14c-1.435,0-2.816-0.553-3.889-1.556s-1.715-2.345-1.811-3.777l-0.165-2.469
		c-0.122-1.815-0.103-4.657,0.041-6.472l4.842-60.963l-36.855,56.339c-1.155,1.769-3.341,2.909-5.567,2.909
		c-0.625,0-1.233-0.09-1.804-0.27l-9.492-2.975c-1.453-0.456-2.609-1.488-3.173-2.832c-0.562-1.344-0.487-2.893,0.208-4.248
		L60.446,45.65c1.022-1.994,3.34-4.18,5.39-5.082l17.519-7.719c0.753-0.332,1.575-0.5,2.44-0.5c2.018,0,3.989,0.94,5.142,2.457
		c0.034,0.044,3.951,5.044,9.062,5.044c5.08,0,9.024-4.993,9.062-5.044c1.154-1.517,3.125-2.457,5.142-2.457
		c0.866,0,1.688,0.168,2.441,0.5l17.518,7.718c2.051,0.903,4.368,3.089,5.391,5.083l48.97,95.543
		c0.695,1.355,0.771,2.904,0.207,4.248c-0.562,1.344-1.72,2.376-3.172,2.832l-9.492,2.975c-0.571,0.18-1.178,0.27-1.804,0.27
		c-2.226,0-4.412-1.141-5.567-2.909l-36.855-56.339l4.842,60.963c0.145,1.814,0.163,4.657,0.042,6.472l-0.165,2.469
		c-0.095,1.433-0.739,2.774-1.811,3.777S132.295,167.505,130.86,167.505z M70.682,82.161c0.77,0,1.484,0.313,2.01,0.884
		c0.998,1.08,0.874,2.648,0.833,3.164l-5.354,67.409c-0.124,1.562-0.141,4.2-0.037,5.763l0.164,2.468
		c0.027,0.405,0.437,0.788,0.842,0.788h61.72c0.406,0,0.815-0.383,0.842-0.788l0.165-2.468c0.104-1.562,0.087-4.201-0.037-5.763
		l-5.354-67.409c-0.041-0.516-0.165-2.084,0.833-3.164c0.526-0.57,1.24-0.884,2.01-0.884c1.728,0,2.729,1.528,3.057,2.032
		l40.396,61.75c0.259,0.396,0.915,0.706,1.493,0.706c0.129,0,0.25-0.017,0.348-0.046l9.491-2.976
		c0.085-0.027,0.123-0.056,0.137-0.068c0-0.018-0.006-0.065-0.047-0.146l-48.97-95.543c-0.517-1.008-1.985-2.392-3.021-2.848
		l-17.519-7.719c-0.129-0.057-0.294-0.087-0.478-0.087c-0.497,0-1.03,0.226-1.268,0.538c-0.216,0.283-5.388,6.963-12.936,6.963
		s-12.72-6.68-12.936-6.963c-0.237-0.312-0.771-0.538-1.268-0.538c-0.183,0-0.349,0.03-0.478,0.087L67.8,45.023
		c-1.036,0.456-2.504,1.84-3.021,2.848l-48.97,95.543c-0.041,0.08-0.047,0.128-0.047,0.146c0.013,0.013,0.051,0.041,0.136,0.068
		l9.492,2.975c0.098,0.03,0.218,0.047,0.348,0.047c0.579,0,1.234-0.31,1.493-0.706l40.394-61.75
		C67.953,83.689,68.954,82.161,70.682,82.161z"/>
	<g>
		<defs>
			<path id="SVGID_7_" d="M81.319,30.816l6.184,7.475l2.022,3.383l7.141,3.461l6.78-0.324l6.779-3.137l0.903-1.66l1.372-1.723
				l6.183-7.475l-1.244-3.641c0,0-1.839-0.324-3.03-0.289c-1.19,0.037-5.229,1.984-6.815,3.246
				c-1.587,1.262-3.607,4.905-3.643,5.158c-0.036,0.252-1.875,1.08-2.849,1.008c-0.973-0.071-1.153,0.398-2.488-0.576
				c-1.335-0.974-2.525-2.994-3.751-4.146c-1.227-1.154-3.498-1.732-4.436-2.525c-0.938-0.793-0.18-1.845-2.524-2.167
				c-2.344-0.321-3.499-1.15-4.292,0.364S81.319,30.816,81.319,30.816z"/>
		</defs>
		<clipPath id="SVGID_2_">
			<use xlink:href="#SVGID_7_"  overflow="visible"/>
		</clipPath>
		<path clip-path="url(#SVGID_2_)" fill="#EE4623" d="M130.86,167.505H69.14c-1.435,0-2.816-0.553-3.889-1.556
			s-1.715-2.345-1.811-3.777l-0.165-2.469c-0.122-1.815-0.103-4.657,0.042-6.472l4.842-60.963l-36.855,56.339
			c-1.155,1.769-3.341,2.909-5.567,2.909c-0.625,0-1.233-0.09-1.804-0.27l-9.492-2.975c-1.453-0.456-2.609-1.488-3.173-2.832
			c-0.562-1.344-0.487-2.893,0.207-4.248L60.446,45.65c1.022-1.994,3.34-4.18,5.39-5.082l17.519-7.719
			c0.753-0.332,1.575-0.5,2.44-0.5c2.018,0,3.989,0.94,5.142,2.457c0.034,0.044,3.951,5.044,9.062,5.044s9.028-5,9.067-5.05
			c1.149-1.511,3.119-2.451,5.136-2.451c0.866,0,1.688,0.168,2.441,0.5l17.518,7.719c2.051,0.902,4.368,3.088,5.391,5.082
			l48.97,95.543c0.695,1.355,0.771,2.904,0.207,4.248c-0.562,1.344-1.72,2.376-3.172,2.832l-9.492,2.975
			c-0.571,0.18-1.178,0.27-1.803,0.27c0,0,0,0,0,0c-2.226,0-4.412-1.142-5.567-2.909l-36.855-56.34l4.842,60.964
			c0.145,1.814,0.163,4.656,0.042,6.472l-0.165,2.469c-0.095,1.433-0.738,2.774-1.811,3.777
			C133.677,166.953,132.295,167.505,130.86,167.505z M70.682,82.161c0.77,0,1.484,0.313,2.01,0.884
			c0.998,1.08,0.874,2.648,0.833,3.164l-5.354,67.409c-0.124,1.561-0.141,4.2-0.037,5.763l0.164,2.468
			c0.027,0.405,0.437,0.788,0.842,0.788h61.72c0.406,0,0.815-0.383,0.842-0.788l0.165-2.468c0.104-1.562,0.087-4.202-0.037-5.762
			l-5.354-67.41c-0.041-0.516-0.165-2.084,0.832-3.164c0.527-0.57,1.241-0.884,2.011-0.884c1.728,0,2.729,1.528,3.057,2.032
			l40.396,61.75c0.259,0.396,0.915,0.706,1.493,0.706c0.129,0,0.25-0.017,0.348-0.046l9.491-2.976
			c0.085-0.027,0.123-0.056,0.137-0.068c0-0.018-0.006-0.065-0.047-0.146l-48.97-95.543c-0.517-1.008-1.985-2.392-3.021-2.848
			l-17.519-7.719c-0.129-0.057-0.294-0.087-0.478-0.087c-0.497,0-1.03,0.226-1.268,0.538c-0.216,0.283-5.388,6.963-12.936,6.963
			s-12.72-6.68-12.936-6.963c-0.237-0.312-0.771-0.538-1.268-0.538c-0.183,0-0.349,0.03-0.478,0.087L67.8,45.023
			c-1.036,0.456-2.504,1.84-3.021,2.848l-48.97,95.543c-0.041,0.08-0.047,0.128-0.047,0.146c0.013,0.013,0.051,0.041,0.136,0.068
			l9.492,2.976c0.098,0.029,0.218,0.046,0.348,0.046c0.579,0,1.234-0.31,1.493-0.706l40.394-61.75
			C67.953,83.689,68.954,82.161,70.682,82.161z"/>
	</g>
	<path fill="#FFFFFF" d="M117.418,77.462c-0.342,0-0.682-0.147-0.918-0.432L66.334,16.443c-0.419-0.506-0.349-1.256,0.158-1.676
		c0.506-0.418,1.256-0.348,1.675,0.158l50.167,60.588c0.42,0.506,0.349,1.256-0.157,1.676
		C117.954,77.373,117.685,77.462,117.418,77.462z"/>
	<path fill="#FFFFFF" d="M82.556,77.462c-0.268,0-0.536-0.09-0.759-0.273c-0.506-0.42-0.576-1.17-0.157-1.676l50.166-60.588
		c0.419-0.506,1.17-0.576,1.676-0.158c0.507,0.42,0.577,1.17,0.158,1.676L83.473,77.031C83.238,77.315,82.898,77.462,82.556,77.462z
		"/>
	<path fill="#231F20" d="M130.86,167.505H69.14c-1.435,0-2.816-0.553-3.889-1.556s-1.715-2.345-1.811-3.777l-0.165-2.469
		c-0.122-1.815-0.103-4.657,0.041-6.472l4.842-60.963l-36.855,56.339c-1.155,1.769-3.341,2.909-5.567,2.909
		c-0.625,0-1.233-0.09-1.804-0.27l-9.492-2.975c-1.453-0.456-2.609-1.488-3.173-2.832c-0.562-1.344-0.487-2.893,0.208-4.248
		L60.446,45.65c1.022-1.994,3.34-4.18,5.39-5.082l17.519-7.719c0.753-0.332,1.575-0.5,2.44-0.5c2.018,0,3.989,0.94,5.142,2.457
		c0.034,0.044,3.951,5.044,9.062,5.044c5.08,0,9.024-4.993,9.062-5.044c1.154-1.517,3.125-2.457,5.142-2.457
		c0.866,0,1.688,0.168,2.441,0.5l17.518,7.718c2.051,0.903,4.368,3.089,5.391,5.083l48.97,95.543
		c0.695,1.355,0.771,2.904,0.207,4.248c-0.562,1.344-1.72,2.376-3.172,2.832l-9.492,2.975c-0.571,0.18-1.178,0.27-1.804,0.27
		c-2.226,0-4.412-1.141-5.567-2.909l-36.855-56.339l4.842,60.963c0.145,1.814,0.163,4.657,0.042,6.472l-0.165,2.469
		c-0.095,1.433-0.739,2.774-1.811,3.777S132.295,167.505,130.86,167.505z M70.682,82.161c0.77,0,1.484,0.313,2.01,0.884
		c0.998,1.08,0.874,2.648,0.833,3.164l-5.354,67.409c-0.124,1.562-0.141,4.2-0.037,5.763l0.164,2.468
		c0.027,0.405,0.437,0.788,0.842,0.788h61.72c0.406,0,0.815-0.383,0.842-0.788l0.165-2.468c0.104-1.562,0.087-4.201-0.037-5.763
		l-5.354-67.409c-0.041-0.516-0.165-2.084,0.833-3.164c0.526-0.57,1.24-0.884,2.01-0.884c1.728,0,2.729,1.528,3.057,2.032
		l40.396,61.75c0.259,0.396,0.915,0.706,1.493,0.706c0.129,0,0.25-0.017,0.348-0.046l9.491-2.976
		c0.085-0.027,0.123-0.056,0.137-0.068c0-0.018-0.006-0.065-0.047-0.146l-48.97-95.543c-0.517-1.008-1.985-2.392-3.021-2.848
		l-17.519-7.719c-0.129-0.057-0.294-0.087-0.478-0.087c-0.497,0-1.03,0.226-1.268,0.538c-0.216,0.283-5.388,6.963-12.936,6.963
		s-12.72-6.68-12.936-6.963c-0.237-0.312-0.771-0.538-1.268-0.538c-0.183,0-0.349,0.03-0.478,0.087L67.8,45.023
		c-1.036,0.456-2.504,1.84-3.021,2.848l-48.97,95.543c-0.041,0.08-0.047,0.128-0.047,0.146c0.013,0.013,0.051,0.041,0.136,0.068
		l9.492,2.975c0.098,0.03,0.218,0.047,0.348,0.047c0.579,0,1.234-0.31,1.493-0.706l40.394-61.75
		C67.953,83.689,68.954,82.161,70.682,82.161z"/>
	<g>
		<defs>
			<path id="SVGID_9_" d="M81.319,30.816l6.184,7.475l2.022,3.383l7.141,3.461l6.78-0.324l6.779-3.137l0.903-1.66l1.372-1.723
				l6.183-7.475l-1.244-3.641c0,0-1.839-0.324-3.03-0.289c-1.19,0.037-5.229,1.984-6.815,3.246
				c-1.587,1.262-3.607,4.905-3.643,5.158c-0.036,0.252-1.875,1.08-2.849,1.008c-0.973-0.071-1.153,0.398-2.488-0.576
				c-1.335-0.974-2.525-2.994-3.751-4.146c-1.227-1.154-3.498-1.732-4.436-2.525c-0.938-0.793-0.18-1.845-2.524-2.167
				c-2.344-0.321-3.499-1.15-4.292,0.364S81.319,30.816,81.319,30.816z"/>
		</defs>
		<clipPath id="SVGID_4_">
			<use xlink:href="#SVGID_9_"  overflow="visible"/>
		</clipPath>
		<path clip-path="url(#SVGID_4_)" fill="#EE4623" d="M130.86,167.505H69.14c-1.435,0-2.816-0.553-3.889-1.556
			s-1.715-2.345-1.811-3.777l-0.165-2.469c-0.122-1.815-0.103-4.657,0.042-6.472l4.842-60.963l-36.855,56.339
			c-1.155,1.769-3.341,2.909-5.567,2.909c-0.625,0-1.233-0.09-1.804-0.27l-9.492-2.975c-1.453-0.456-2.609-1.488-3.173-2.832
			c-0.562-1.344-0.487-2.893,0.207-4.248L60.446,45.65c1.022-1.994,3.34-4.18,5.39-5.082l17.519-7.719
			c0.753-0.332,1.575-0.5,2.44-0.5c2.018,0,3.989,0.94,5.142,2.457c0.034,0.044,3.951,5.044,9.062,5.044s9.028-5,9.067-5.05
			c1.149-1.511,3.119-2.451,5.136-2.451c0.866,0,1.688,0.168,2.441,0.5l17.518,7.719c2.051,0.902,4.368,3.088,5.391,5.082
			l48.97,95.543c0.695,1.355,0.771,2.904,0.207,4.248c-0.562,1.344-1.72,2.376-3.172,2.832l-9.492,2.975
			c-0.571,0.18-1.178,0.27-1.803,0.27c0,0,0,0,0,0c-2.226,0-4.412-1.142-5.567-2.909l-36.855-56.34l4.842,60.964
			c0.145,1.814,0.163,4.656,0.042,6.472l-0.165,2.469c-0.095,1.433-0.738,2.774-1.811,3.777
			C133.677,166.953,132.295,167.505,130.86,167.505z M70.682,82.161c0.77,0,1.484,0.313,2.01,0.884
			c0.998,1.08,0.874,2.648,0.833,3.164l-5.354,67.409c-0.124,1.561-0.141,4.2-0.037,5.763l0.164,2.468
			c0.027,0.405,0.437,0.788,0.842,0.788h61.72c0.406,0,0.815-0.383,0.842-0.788l0.165-2.468c0.104-1.562,0.087-4.202-0.037-5.762
			l-5.354-67.41c-0.041-0.516-0.165-2.084,0.832-3.164c0.527-0.57,1.241-0.884,2.011-0.884c1.728,0,2.729,1.528,3.057,2.032
			l40.396,61.75c0.259,0.396,0.915,0.706,1.493,0.706c0.129,0,0.25-0.017,0.348-0.046l9.491-2.976
			c0.085-0.027,0.123-0.056,0.137-0.068c0-0.018-0.006-0.065-0.047-0.146l-48.97-95.543c-0.517-1.008-1.985-2.392-3.021-2.848
			l-17.519-7.719c-0.129-0.057-0.294-0.087-0.478-0.087c-0.497,0-1.03,0.226-1.268,0.538c-0.216,0.283-5.388,6.963-12.936,6.963
			s-12.72-6.68-12.936-6.963c-0.237-0.312-0.771-0.538-1.268-0.538c-0.183,0-0.349,0.03-0.478,0.087L67.8,45.023
			c-1.036,0.456-2.504,1.84-3.021,2.848l-48.97,95.543c-0.041,0.08-0.047,0.128-0.047,0.146c0.013,0.013,0.051,0.041,0.136,0.068
			l9.492,2.976c0.098,0.029,0.218,0.046,0.348,0.046c0.579,0,1.234-0.31,1.493-0.706l40.394-61.75
			C67.953,83.689,68.954,82.161,70.682,82.161z"/>
	</g>
	<path fill="#FFFFFF" d="M117.418,77.462c-0.342,0-0.682-0.147-0.918-0.432L66.334,16.443c-0.419-0.506-0.349-1.256,0.158-1.676
		c0.506-0.418,1.256-0.348,1.675,0.158l50.167,60.588c0.42,0.506,0.349,1.256-0.157,1.676
		C117.954,77.373,117.685,77.462,117.418,77.462z"/>
	<path fill="#FFFFFF" d="M82.556,77.462c-0.268,0-0.536-0.09-0.759-0.273c-0.506-0.42-0.576-1.17-0.157-1.676l50.166-60.588
		c0.419-0.506,1.17-0.576,1.676-0.158c0.507,0.42,0.577,1.17,0.158,1.676L83.473,77.031C83.238,77.315,82.898,77.462,82.556,77.462z
		"/>
</g>
</svg>
