<?xml version="1.0" encoding="utf-8"?>
<!-- Generator: Adobe Illustrator 16.0.0, SVG Export Plug-In . SVG Version: 6.00 Build 0)  -->
<!DOCTYPE svg PUBLIC "-//W3C//DTD SVG 1.1//EN" "http://www.w3.org/Graphics/SVG/1.1/DTD/svg11.dtd">
<svg version="1.1" id="Layer_1" xmlns="http://www.w3.org/2000/svg" xmlns:xlink="http://www.w3.org/1999/xlink" x="0px" y="0px"
	 width="200px" height="200px" viewBox="0 0 200 200" enable-background="new 0 0 200 200" xml:space="preserve">
<g>
	<g>
		<path fill="#231F20" d="M99.999,64.003c-0.45,0-0.888,0.216-1.229,0.611l-42.859,49.15c-0.856,0.98-0.856,2.7,0,3.681
			l42.859,49.147c0.686,0.79,1.775,0.79,2.463,0l42.857-49.147c0.855-0.98,0.855-2.7,0-3.681l-42.857-49.15
			C100.889,64.219,100.449,64.003,99.999,64.003z"/>
		<path fill="#231F20" d="M100,169.749c-1.197,0-2.352-0.537-3.166-1.475L53.979,119.13c-1.698-1.943-1.697-5.107,0.001-7.052
			l42.858-49.149c0.814-0.943,1.97-1.49,3.161-1.49c1.188,0,2.342,0.544,3.167,1.491l42.856,49.149
			c1.696,1.943,1.696,5.107-0.001,7.052l-42.856,49.147C102.351,169.213,101.196,169.749,100,169.749z M57.859,115.779
			l42.142,48.325l42.14-48.324c0.036-0.084,0.036-0.267,0-0.351l-42.14-48.327l-42.142,48.328
			C57.822,115.515,57.822,115.696,57.859,115.779z"/>
	</g>
	<g>
		<path fill="#FFFFFF" d="M99.999,32.814c-0.45,0-0.888,0.216-1.229,0.61L55.91,82.576c-0.856,0.98-0.856,2.699,0,3.68
			l42.859,49.148c0.686,0.789,1.775,0.789,2.463,0l42.857-49.148c0.855-0.98,0.855-2.699,0-3.68l-42.857-49.151
			C100.889,33.03,100.449,32.814,99.999,32.814z"/>
		<path fill="#231F20" d="M100,138.56c-1.197,0-2.352-0.536-3.165-1.473L53.979,87.941c-1.698-1.943-1.697-5.108,0.001-7.053
			l42.858-49.149c0.814-0.943,1.971-1.488,3.161-1.488c1.188,0,2.341,0.542,3.166,1.489l42.857,49.15
			c1.696,1.943,1.696,5.106-0.001,7.052l-42.856,49.147C102.35,138.024,101.196,138.56,100,138.56z M57.859,84.59l42.142,48.325
			l42.14-48.324c0.036-0.083,0.036-0.266,0-0.35l-42.14-48.327L57.859,84.242C57.822,84.325,57.822,84.507,57.859,84.59z"/>
	</g>
</g>
</svg>
