<?xml version="1.0" encoding="utf-8"?>
<!-- Generator: Adobe Illustrator 16.0.0, SVG Export Plug-In . SVG Version: 6.00 Build 0)  -->
<!DOCTYPE svg PUBLIC "-//W3C//DTD SVG 1.1//EN" "http://www.w3.org/Graphics/SVG/1.1/DTD/svg11.dtd">
<svg version="1.1" id="Layer_1" xmlns="http://www.w3.org/2000/svg" xmlns:xlink="http://www.w3.org/1999/xlink" x="0px" y="0px"
	 width="200px" height="200px" viewBox="0 0 200 200" enable-background="new 0 0 200 200" xml:space="preserve">
<g>
	<g>
		<path fill="#FFFFFF" d="M85.231,42.181c-0.504,0-0.996,0.242-1.378,0.684L35.819,97.949c-0.959,1.099-0.959,3.026,0,4.125
			l48.034,55.082c0.769,0.884,1.989,0.884,2.759,0l48.032-55.082c0.959-1.099,0.959-3.026,0-4.125L86.612,42.864
			C86.229,42.423,85.736,42.181,85.231,42.181z"/>
		<path fill="#231F20" d="M85.232,160.383c-1.253,0-2.461-0.563-3.314-1.545l-48.03-55.079c-1.805-2.065-1.805-5.429,0.001-7.496
			L81.921,41.18c0.856-0.99,2.065-1.563,3.311-1.563c1.241,0,2.449,0.57,3.315,1.564l48.03,55.084
			c1.803,2.065,1.804,5.428-0.001,7.495l-48.031,55.081C87.692,159.82,86.484,160.383,85.232,160.383z M85.233,45.184L37.752,99.635
			c-0.117,0.146-0.117,0.609,0,0.754l47.481,54.448l47.479-54.448c0.117-0.144,0.117-0.609,0.001-0.754L85.233,45.184z"/>
	</g>
	<g>
		<path fill="#FFFFFF" d="M143.416,108.267c-0.217,0-0.427,0.104-0.591,0.293l-20.583,23.604c-0.411,0.471-0.411,1.298,0,1.768
			l20.583,23.604c0.329,0.378,0.852,0.378,1.183,0l20.582-23.604c0.411-0.47,0.411-1.297,0-1.768l-20.582-23.604
			C143.843,108.37,143.632,108.267,143.416,108.267z"/>
		<path fill="#231F20" d="M143.416,160.384c-0.961,0-1.881-0.425-2.524-1.164l-20.582-23.603c-1.258-1.439-1.258-3.698,0.002-5.14
			l20.581-23.603c0.64-0.741,1.562-1.172,2.523-1.172c0.956,0,1.876,0.428,2.525,1.174l20.581,23.603
			c1.257,1.44,1.257,3.698-0.002,5.139l-20.58,23.603C145.294,159.96,144.375,160.384,143.416,160.384z M124.873,133.048
			l18.543,21.266l18.543-21.266l-18.543-21.266L124.873,133.048z"/>
	</g>
</g>
</svg>
