<?xml version="1.0" encoding="utf-8"?>
<!-- Generator: Adobe Illustrator 16.0.0, SVG Export Plug-In . SVG Version: 6.00 Build 0)  -->
<!DOCTYPE svg PUBLIC "-//W3C//DTD SVG 1.1//EN" "http://www.w3.org/Graphics/SVG/1.1/DTD/svg11.dtd">
<svg version="1.1" id="Layer_1" xmlns="http://www.w3.org/2000/svg" xmlns:xlink="http://www.w3.org/1999/xlink" x="0px" y="0px"
	 width="200px" height="200px" viewBox="0 0 200 200" enable-background="new 0 0 200 200" xml:space="preserve">
<g>
	<path fill="#231F20" d="M53.181,129.707c-0.985,0-1.942-0.511-2.47-1.425c-0.787-1.362-0.32-3.104,1.042-3.891l93.433-53.943
		c1.362-0.787,3.104-0.32,3.892,1.042c0.786,1.363,0.319,3.105-1.043,3.892l-93.433,53.943
		C54.153,129.583,53.663,129.707,53.181,129.707z"/>
	<path fill="#231F20" d="M146.819,129.954c-0.483,0-0.974-0.123-1.422-0.382L51.931,75.608c-1.362-0.787-1.829-2.529-1.043-3.891
		c0.787-1.363,2.529-1.829,3.892-1.043l93.467,53.963c1.362,0.787,1.829,2.529,1.043,3.892
		C148.761,129.443,147.804,129.954,146.819,129.954z"/>
	<path fill="#231F20" d="M82.149,92.622c-0.483,0-0.973-0.123-1.422-0.382c-1.362-0.787-1.829-2.529-1.043-3.891
		c1.841-3.187,2.329-6.9,1.377-10.455c-0.952-3.554-3.232-6.525-6.419-8.365c-3.188-1.84-6.9-2.329-10.455-1.376
		c-3.555,0.953-6.525,3.232-8.365,6.419c-0.787,1.362-2.529,1.829-3.892,1.042s-1.829-2.529-1.043-3.891
		c2.602-4.505,6.801-7.728,11.825-9.074c5.025-1.346,10.273-0.655,14.778,1.946c4.505,2.601,7.728,6.8,9.073,11.825
		c1.347,5.024,0.655,10.273-1.945,14.778C84.092,92.11,83.134,92.622,82.149,92.622z"/>
	<path fill="#231F20" d="M67.612,138.024c-1.691,0-3.395-0.222-5.072-0.672c-5.024-1.346-9.225-4.569-11.825-9.074
		c-0.786-1.363-0.319-3.105,1.043-3.892c1.362-0.787,3.104-0.32,3.892,1.043c1.84,3.187,4.811,5.467,8.365,6.419
		c3.555,0.953,7.268,0.464,10.454-1.376c3.188-1.84,5.467-4.811,6.42-8.366c0.952-3.555,0.463-7.268-1.377-10.455
		c-0.786-1.362-0.319-3.105,1.043-3.892s3.104-0.32,3.892,1.043c2.601,4.505,3.292,9.753,1.945,14.778
		c-1.347,5.024-4.568,9.224-9.074,11.825C74.317,137.139,70.986,138.024,67.612,138.024z"/>
</g>
</svg>
