<?xml version="1.0" encoding="utf-8"?>
<!-- Generator: Adobe Illustrator 16.0.0, SVG Export Plug-In . SVG Version: 6.00 Build 0)  -->
<!DOCTYPE svg PUBLIC "-//W3C//DTD SVG 1.1//EN" "http://www.w3.org/Graphics/SVG/1.1/DTD/svg11.dtd">
<svg version="1.1" id="Layer_1" xmlns="http://www.w3.org/2000/svg" xmlns:xlink="http://www.w3.org/1999/xlink" x="0px" y="0px"
	 width="200px" height="200px" viewBox="0 0 200 200" enable-background="new 0 0 200 200" xml:space="preserve">
<g>
	<path fill="#231F20" d="M68.295,91.483c-2.13,0-3.856-1.725-3.858-3.855c-0.001-2.131,1.726-3.86,3.856-3.861l88.214-0.056
		c0.001,0,0.003,0,0.003,0c2.13,0,3.858,1.726,3.858,3.856c0.001,2.131-1.725,3.86-3.855,3.861l-88.215,0.055
		C68.298,91.483,68.296,91.483,68.295,91.483z"/>
	<path fill="#231F20" d="M112.431,135.563c-2.13,0-3.856-1.726-3.857-3.856l-0.058-88.214c0-2.131,1.726-3.859,3.856-3.861
		c0,0,0.001,0,0.003,0c2.13,0,3.856,1.726,3.858,3.856l0.058,88.214c0,2.132-1.727,3.86-3.857,3.861
		C112.434,135.563,112.433,135.563,112.431,135.563z"/>
	<g>
		<path fill="#231F20" d="M43.49,135.579c-2.13,0-3.858-1.726-3.858-3.856c-0.001-2.131,1.726-3.86,3.856-3.861l49.609-0.03
			c0.002,0,0.004,0,0.004,0c2.129,0,3.857,1.725,3.857,3.855c0.002,2.131-1.724,3.86-3.855,3.861l-49.61,0.031
			C43.493,135.579,43.491,135.579,43.49,135.579z"/>
		<path fill="#231F20" d="M68.311,160.369c-2.129,0-3.856-1.726-3.857-3.856l-0.031-49.61c-0.001-2.131,1.725-3.86,3.855-3.862
			c0.001,0,0.003,0,0.003,0c2.13,0,3.858,1.727,3.859,3.856l0.03,49.611c0.002,2.131-1.725,3.859-3.855,3.861
			C68.314,160.369,68.312,160.369,68.311,160.369z"/>
	</g>
</g>
</svg>
