<?xml version="1.0" encoding="utf-8"?>
<!-- Generator: Adobe Illustrator 16.0.0, SVG Export Plug-In . SVG Version: 6.00 Build 0)  -->
<!DOCTYPE svg PUBLIC "-//W3C//DTD SVG 1.1//EN" "http://www.w3.org/Graphics/SVG/1.1/DTD/svg11.dtd">
<svg version="1.1" id="Layer_1" xmlns="http://www.w3.org/2000/svg" xmlns:xlink="http://www.w3.org/1999/xlink" x="0px" y="0px"
	 width="200px" height="200px" viewBox="0 0 200 200" enable-background="new 0 0 200 200" xml:space="preserve">
<g>
	<g>
		<path fill="#FFFFFF" d="M65.742,80.654c-0.169,0-0.334,0.08-0.461,0.229L49.225,99.297c-0.321,0.367-0.321,1.012,0,1.379
			l16.057,18.413c0.256,0.295,0.664,0.295,0.922,0l16.056-18.413c0.321-0.367,0.321-1.012,0-1.379L66.203,80.883
			C66.074,80.734,65.91,80.654,65.742,80.654z"/>
		<path fill="#231F20" d="M65.742,121.874c-0.914,0-1.787-0.402-2.396-1.104l-16.054-18.41c-1.162-1.331-1.162-3.418,0.001-4.75
			l16.056-18.412c0.601-0.699,1.478-1.107,2.394-1.107c0.909,0,1.783,0.404,2.396,1.109l16.053,18.412
			c1.162,1.33,1.162,3.418-0.002,4.75l-16.054,18.411C67.523,121.474,66.651,121.874,65.742,121.874z M52.025,99.986l13.717,15.73
			l13.716-15.73L65.742,84.255L52.025,99.986z"/>
	</g>
	<g>
		<path fill="#FFFFFF" d="M82.849,61.021c-0.169,0-0.333,0.081-0.461,0.229L66.331,79.664c-0.32,0.367-0.32,1.012,0,1.379
			l16.057,18.413c0.257,0.295,0.665,0.295,0.923,0l16.056-18.413c0.321-0.367,0.321-1.012,0-1.379L83.311,61.251
			C83.182,61.103,83.018,61.021,82.849,61.021z"/>
		<path fill="#231F20" d="M82.849,102.241c-0.912,0-1.785-0.401-2.395-1.102L64.398,82.728c-1.162-1.331-1.162-3.419,0.002-4.751
			l16.055-18.411c0.608-0.701,1.482-1.107,2.394-1.107c0.907,0,1.78,0.403,2.394,1.107l16.057,18.413
			c1.162,1.33,1.162,3.418-0.001,4.75l-16.055,18.412C84.634,101.84,83.761,102.241,82.849,102.241z M69.132,80.354l13.717,15.73
			l13.718-15.73L82.849,64.622L69.132,80.354z"/>
	</g>
	<g>
		<path fill="#FFFFFF" d="M99.982,41.413c-0.168,0-0.332,0.08-0.461,0.228L83.466,60.055c-0.321,0.367-0.321,1.012,0,1.379
			l16.056,18.413c0.258,0.295,0.666,0.295,0.923,0L116.5,61.434c0.321-0.367,0.321-1.012,0-1.379l-16.056-18.414
			C100.316,41.493,100.151,41.413,99.982,41.413z"/>
		<path fill="#231F20" d="M99.983,82.632c-0.911,0-1.783-0.4-2.393-1.099L81.533,63.118c-1.163-1.33-1.163-3.418,0.002-4.751
			L97.59,39.956c0.608-0.702,1.482-1.107,2.393-1.107s1.784,0.405,2.397,1.11l16.053,18.41c1.163,1.331,1.163,3.419-0.001,4.752
			l-16.055,18.411C101.766,82.231,100.894,82.632,99.983,82.632z M86.266,60.744l13.718,15.73l13.717-15.73L99.983,45.013
			L86.266,60.744z"/>
	</g>
	<g>
		<path fill="#FFFFFF" d="M82.864,100.319c-0.169,0-0.333,0.08-0.461,0.229l-16.057,18.414c-0.321,0.366-0.321,1.012,0,1.379
			l16.057,18.413c0.257,0.294,0.665,0.294,0.923,0l16.055-18.413c0.321-0.367,0.321-1.013,0-1.379l-16.055-18.414
			C83.197,100.399,83.032,100.319,82.864,100.319z"/>
		<path fill="#231F20" d="M82.864,141.538c-0.912,0-1.784-0.4-2.394-1.1l-16.057-18.413c-1.163-1.331-1.163-3.419,0.003-4.752
			l16.054-18.411c0.605-0.7,1.48-1.107,2.394-1.107c0.909,0,1.783,0.405,2.396,1.11l16.053,18.411c1.162,1.33,1.162,3.418,0,4.75
			l-16.056,18.412C84.646,141.139,83.774,141.538,82.864,141.538z M69.147,119.651l13.717,15.73l13.717-15.73L82.864,103.92
			L69.147,119.651z"/>
	</g>
	<g>
		<path fill="#FFFFFF" d="M99.971,80.687c-0.168,0-0.333,0.081-0.461,0.229L83.453,99.329c-0.32,0.367-0.32,1.012,0,1.379
			L99.51,119.12c0.258,0.297,0.665,0.297,0.923,0l16.056-18.412c0.321-0.367,0.321-1.012,0-1.379l-16.056-18.414
			C100.304,80.768,100.139,80.687,99.971,80.687z"/>
		<path fill="#231F20" d="M99.971,121.906c-0.912,0-1.786-0.402-2.396-1.104l-16.054-18.41c-1.164-1.331-1.164-3.419,0.002-4.752
			l16.054-18.411c0.606-0.7,1.481-1.106,2.394-1.106c0.91,0,1.783,0.404,2.396,1.11l16.054,18.41
			c1.163,1.33,1.163,3.418-0.002,4.751l-16.054,18.411C101.757,121.505,100.883,121.906,99.971,121.906z M86.254,100.019
			l13.717,15.729l13.717-15.729L99.971,84.287L86.254,100.019z"/>
	</g>
	<g>
		<path fill="#FFFFFF" d="M117.105,61.077c-0.169,0-0.334,0.081-0.461,0.229L100.588,79.72c-0.32,0.367-0.32,1.012,0,1.379
			l16.057,18.413c0.257,0.295,0.665,0.295,0.923,0l16.056-18.413c0.32-0.367,0.32-1.012,0-1.379l-16.056-18.414
			C117.438,61.158,117.273,61.077,117.105,61.077z"/>
		<path fill="#231F20" d="M117.105,102.297c-0.911,0-1.783-0.4-2.394-1.1L98.655,82.783c-1.162-1.33-1.162-3.417,0.001-4.75
			l16.056-18.412c0.604-0.7,1.479-1.107,2.394-1.107c0.908,0,1.782,0.404,2.396,1.109l16.055,18.411
			c1.161,1.332,1.161,3.419-0.001,4.75l-16.056,18.412C118.889,101.896,118.016,102.297,117.105,102.297z M103.389,80.409
			l13.717,15.73l13.717-15.73l-13.717-15.731L103.389,80.409z"/>
	</g>
	<g>
		<path fill="#FFFFFF" d="M100.017,119.932c-0.169,0-0.333,0.08-0.461,0.228l-16.057,18.414c-0.321,0.367-0.321,1.012,0,1.38
			l16.057,18.412c0.257,0.296,0.665,0.296,0.923,0l16.056-18.412c0.32-0.368,0.32-1.013,0-1.38l-16.056-18.414
			C100.35,120.012,100.185,119.932,100.017,119.932z"/>
		<path fill="#231F20" d="M100.017,161.151c-0.913,0-1.786-0.402-2.396-1.104l-16.054-18.409c-1.162-1.332-1.162-3.42,0.002-4.752
			l16.055-18.411c0.605-0.701,1.48-1.107,2.394-1.107c0.909,0,1.782,0.404,2.396,1.109l16.054,18.412
			c1.162,1.33,1.162,3.417,0,4.749L102.41,160.05C101.801,160.75,100.928,161.151,100.017,161.151z M86.299,139.263l13.718,15.73
			l13.717-15.73l-13.717-15.731L86.299,139.263z"/>
	</g>
	<g>
		<path fill="#FFFFFF" d="M117.123,100.299c-0.168,0-0.333,0.08-0.461,0.229l-16.057,18.413c-0.32,0.368-0.32,1.012,0,1.379
			l16.057,18.413c0.258,0.296,0.665,0.296,0.923,0l16.056-18.413c0.321-0.367,0.321-1.011,0-1.379l-16.056-18.413
			C117.456,100.379,117.292,100.299,117.123,100.299z"/>
		<path fill="#231F20" d="M117.123,141.519c-0.912,0-1.785-0.402-2.395-1.103l-16.055-18.411c-1.162-1.33-1.162-3.418,0.001-4.75
			l16.056-18.413c0.604-0.7,1.479-1.107,2.393-1.107c0.91,0,1.783,0.404,2.396,1.11l16.054,18.411
			c1.163,1.331,1.162,3.419-0.003,4.751l-16.053,18.411C118.907,141.117,118.035,141.519,117.123,141.519z M103.406,119.63
			l13.717,15.73l13.717-15.73l-13.717-15.73L103.406,119.63z"/>
	</g>
	<g>
		<path fill="#FFFFFF" d="M134.258,80.689c-0.169,0-0.333,0.08-0.461,0.229L117.74,99.331c-0.32,0.367-0.32,1.012,0,1.38
			l16.057,18.413c0.258,0.294,0.664,0.294,0.923,0l16.056-18.413c0.32-0.368,0.32-1.013,0-1.38L134.72,80.918
			C134.591,80.77,134.427,80.689,134.258,80.689z"/>
		<path fill="#231F20" d="M134.258,121.908c-0.91,0-1.782-0.4-2.393-1.098l-16.058-18.415c-1.161-1.332-1.161-3.418,0-4.75
			l16.057-18.412c0.604-0.701,1.48-1.108,2.394-1.108c0.908,0,1.781,0.404,2.395,1.108l16.056,18.413
			c1.161,1.331,1.161,3.417,0,4.749l-16.056,18.413C136.039,121.509,135.167,121.908,134.258,121.908z M120.54,100.021l13.718,15.73
			l13.717-15.73L134.258,84.29L120.54,100.021z"/>
	</g>
</g>
</svg>
