<?xml version="1.0" encoding="utf-8"?>
<!-- Generator: Adobe Illustrator 16.0.0, SVG Export Plug-In . SVG Version: 6.00 Build 0)  -->
<!DOCTYPE svg PUBLIC "-//W3C//DTD SVG 1.1//EN" "http://www.w3.org/Graphics/SVG/1.1/DTD/svg11.dtd">
<svg version="1.1" id="Layer_1" xmlns="http://www.w3.org/2000/svg" xmlns:xlink="http://www.w3.org/1999/xlink" x="0px" y="0px"
	 width="200px" height="200px" viewBox="0 0 200 200" enable-background="new 0 0 200 200" xml:space="preserve">
<path fill="#EE4523" d="M130.86,167.578H69.14c-1.436,0-2.817-0.553-3.889-1.556c-1.073-1.003-1.716-2.345-1.811-3.777l-0.165-2.468
	c-0.12-1.816-0.103-4.658,0.041-6.472l4.843-60.964l-36.855,56.34c-1.156,1.767-3.341,2.909-5.568,2.909
	c-0.625,0-1.232-0.09-1.802-0.27l-9.493-2.976c-1.453-0.455-2.609-1.488-3.172-2.831c-0.563-1.344-0.488-2.893,0.207-4.248
	l48.971-95.543c1.022-1.994,3.34-4.18,5.39-5.083l17.519-7.718c0.753-0.332,1.574-0.5,2.441-0.5c2.017,0,3.988,0.941,5.141,2.457
	c0.035,0.044,3.953,5.045,9.062,5.045c5.11,0,9.029-5,9.067-5.051c1.148-1.51,3.12-2.451,5.137-2.451c0.866,0,1.688,0.168,2.441,0.5
	l17.518,7.718c2.051,0.903,4.368,3.089,5.39,5.083l48.971,95.543c0.695,1.355,0.77,2.904,0.207,4.248
	c-0.563,1.343-1.72,2.376-3.173,2.831l-9.492,2.976c-0.571,0.179-1.177,0.27-1.802,0.27c-2.227,0-4.412-1.142-5.568-2.909
	l-36.855-56.34l4.843,60.964c0.144,1.814,0.162,4.656,0.041,6.472l-0.165,2.468c-0.096,1.432-0.738,2.774-1.811,3.777
	C133.677,167.025,132.296,167.578,130.86,167.578z M70.681,82.234c0.771,0,1.485,0.313,2.011,0.883
	c0.998,1.081,0.873,2.649,0.833,3.164l-5.355,67.41c-0.124,1.561-0.141,4.2-0.036,5.762l0.165,2.468
	c0.026,0.405,0.436,0.788,0.842,0.788h61.72c0.406,0,0.815-0.383,0.842-0.788l0.165-2.468c0.104-1.562,0.087-4.201-0.037-5.762
	l-5.355-67.41c-0.041-0.515-0.165-2.083,0.833-3.164c0.526-0.569,1.24-0.883,2.01-0.883c1.728,0,2.729,1.528,3.057,2.031
	l40.395,61.75c0.259,0.396,0.915,0.707,1.494,0.707c0.129,0,0.249-0.017,0.346-0.047l9.492-2.975
	c0.085-0.027,0.124-0.057,0.136-0.068c0-0.018-0.006-0.065-0.046-0.145l-48.971-95.543c-0.517-1.008-1.985-2.392-3.021-2.849
	l-17.518-7.718c-0.13-0.057-0.295-0.087-0.478-0.087c-0.497,0-1.03,0.226-1.269,0.538c-0.216,0.284-5.387,6.964-12.936,6.964
	c-7.548,0-12.72-6.68-12.936-6.964c-0.237-0.312-0.771-0.538-1.268-0.538c-0.184,0-0.349,0.03-0.478,0.087L67.8,45.096
	c-1.037,0.457-2.504,1.84-3.021,2.849l-48.971,95.543c-0.041,0.08-0.047,0.127-0.047,0.145c0.013,0.012,0.051,0.041,0.136,0.068
	l9.491,2.975c0.099,0.031,0.218,0.047,0.347,0.047c0.579,0,1.234-0.311,1.494-0.707l40.394-61.75
	C67.953,83.763,68.954,82.234,70.681,82.234z"/>
</svg>
